<?xml version="1.0" encoding="UTF-8"?>
<svg xmlns="http://www.w3.org/2000/svg" xmlns:xlink="http://www.w3.org/1999/xlink" width="1288px" height="270px" viewBox="0 0 1288 270" version="1.1">
<g id="surface1">
<path style=" stroke:none;fill-rule:nonzero;fill:rgb(88.627451%,51.764706%,7.45098%);fill-opacity:0.501961;" d="M 471 50 C 471 77.613281 448.613281 100 421 100 C 393.386719 100 371 77.613281 371 50 C 371 22.386719 393.386719 0 421 0 C 448.613281 0 471 22.386719 471 50 Z M 471 50 "/>
<path style=" stroke:none;fill-rule:nonzero;fill:rgb(88.627451%,51.764706%,7.45098%);fill-opacity:0.501961;" d="M 878 184 C 878 211.613281 855.613281 234 828 234 C 800.386719 234 778 211.613281 778 184 C 778 156.386719 800.386719 134 828 134 C 855.613281 134 878 156.386719 878 184 Z M 878 184 "/>
<path style=" stroke:none;fill-rule:nonzero;fill:rgb(88.627451%,51.764706%,7.45098%);fill-opacity:0.501961;" d="M 1288 61 C 1288 88.613281 1265.613281 111 1238 111 C 1210.386719 111 1188 88.613281 1188 61 C 1188 33.386719 1210.386719 11 1238 11 C 1265.613281 11 1288 33.386719 1288 61 Z M 1288 61 "/>
<path style=" stroke:none;fill-rule:nonzero;fill:rgb(88.627451%,51.764706%,7.45098%);fill-opacity:0.501961;" d="M 89 170 C 89 225.226562 44.226562 270 -11 270 C -66.226562 270 -111 225.226562 -111 170 C -111 114.773438 -66.226562 70 -11 70 C 44.226562 70 89 114.773438 89 170 Z M 89 170 "/>
</g>
</svg>
