<svg width="28" height="27" viewBox="0 0 28 27" fill="none" xmlns="http://www.w3.org/2000/svg">
<path d="M22.309 22.8402C21.3386 21.5553 20.083 20.5133 18.6412 19.7962C17.1995 19.0792 15.6109 18.7067 14.0007 18.7082C12.3905 18.7067 10.8019 19.0792 9.36016 19.7962C7.91841 20.5133 6.66283 21.5553 5.69236 22.8402M22.309 22.8402C24.2028 21.1557 25.5384 18.9354 26.1412 16.4736C26.7441 14.0118 26.5844 11.4249 25.6833 9.05594C24.7822 6.687 23.1823 4.64795 21.0957 3.2092C19.0091 1.77046 16.5345 1 14 1C11.4655 1 8.99088 1.77046 6.90431 3.2092C4.81774 4.64795 3.21782 6.687 2.31672 9.05594C1.41561 11.4249 1.25591 14.0118 1.85878 16.4736C2.46165 18.9354 3.79861 21.1557 5.69236 22.8402M22.309 22.8402C20.0229 24.8794 17.0641 26.0043 14.0007 26C10.9368 26.0047 7.9788 24.8797 5.69236 22.8402M18.1674 10.3747C18.1674 11.4798 17.7284 12.5396 16.947 13.3211C16.1656 14.1025 15.1058 14.5415 14.0007 14.5415C12.8956 14.5415 11.8358 14.1025 11.0544 13.3211C10.273 12.5396 9.83403 11.4798 9.83403 10.3747C9.83403 9.26965 10.273 8.20983 11.0544 7.42841C11.8358 6.647 12.8956 6.20801 14.0007 6.20801C15.1058 6.20801 16.1656 6.647 16.947 7.42841C17.7284 8.20983 18.1674 9.26965 18.1674 10.3747Z" stroke="black" stroke-width="1.5" stroke-linecap="round" stroke-linejoin="round"/>
</svg>
