<svg width="20" height="20" viewBox="0 0 20 20" fill="none" xmlns="http://www.w3.org/2000/svg">
<path fill-rule="evenodd" clip-rule="evenodd" d="M0 10.25C0 4.865 4.365 0.5 9.75 0.5C15.135 0.5 19.5 4.865 19.5 10.25C19.5 15.635 15.135 20 9.75 20C4.365 20 0 15.635 0 10.25ZM13.36 8.436C13.42 8.35605 13.4634 8.26492 13.4877 8.16795C13.512 8.07098 13.5166 7.97014 13.5014 7.87135C13.4861 7.77257 13.4512 7.67782 13.3989 7.5927C13.3465 7.50757 13.2776 7.43378 13.1963 7.37565C13.1149 7.31753 13.0228 7.27624 12.9253 7.25423C12.8278 7.23221 12.7269 7.22991 12.6285 7.24746C12.5301 7.26501 12.4362 7.30205 12.3523 7.35641C12.2684 7.41077 12.1962 7.48135 12.14 7.564L8.904 12.094L7.28 10.47C7.13783 10.3375 6.94978 10.2654 6.75548 10.2688C6.56118 10.2723 6.37579 10.351 6.23838 10.4884C6.10097 10.6258 6.02225 10.8112 6.01882 11.0055C6.0154 11.1998 6.08752 11.3878 6.22 11.53L8.47 13.78C8.54699 13.8569 8.6398 13.9162 8.74199 13.9536C8.84418 13.9911 8.95329 14.0059 9.06176 13.9969C9.17023 13.988 9.27546 13.9555 9.37013 13.9019C9.4648 13.8482 9.54665 13.7745 9.61 13.686L13.36 8.436Z" fill="#E28413"/>
</svg>
